{
    "asset" : {
        "generator" : "Khronos glTF Blender I/O v3.4.50",
        "version" : "2.0"
    },
    "scene" : 0,
    "scenes" : [
        {
            "name" : "Scene",
            "nodes" : [
                0,
                1,
                2
            ]
        }
    ],
    "nodes" : [
        {
            "mesh" : 0,
            "name" : "Plane_Plane.008",
            "rotation" : [
                0.05071885883808136,
                -0.8187469244003296,
                -0.003587990300729871,
                0.5718988180160522
            ],
            "translation" : [
                -0.10443142056465149,
                -0.04475632309913635,
                0.2958890497684479
            ]
        },
        {
            "name" : "right-sleev",
            "rotation" : [
                0.05071885883808136,
                -0.8187469244003296,
                -0.003587990300729871,
                0.5718988180160522
            ],
            "translation" : [
                -0.3219103217124939,
                -0.04270826652646065,
                -0.040229737758636475
            ]
        },
        {
            "mesh" : 1,
            "name" : "Cube",
            "scale" : [
                0.9999011158943176,
                1,
                1.0000176429748535
            ],
            "translation" : [
                -0.32190999388694763,
                -0.04270826280117035,
                -0.04022976756095886
            ]
        }
    ],
    "materials" : [
        {
            "doubleSided" : true,
            "name" : "shirt",
            "pbrMetallicRoughness" : {
                "baseColorFactor" : [
                    0.6069375276565552,
                    0.7920554876327515,
                    0.8000000715255737,
                    1
                ],
                "metallicFactor" : 0,
                "metallicRoughnessTexture" : {
                    "index" : 0
                }
            }
        },
        {
            "doubleSided" : true,
            "name" : "right-sleeve",
            "pbrMetallicRoughness" : {
                "baseColorFactor" : [
                    0.014872699044644833,
                    0.6284609436988831,
                    0.8000000715255737,
                    1
                ],
                "metallicFactor" : 0,
                "roughnessFactor" : 0.5
            }
        },
        {
            "doubleSided" : true,
            "name" : "left-sleeve",
            "pbrMetallicRoughness" : {
                "baseColorFactor" : [
                    0.8000000715255737,
                    0.04107788950204849,
                    0.2134261280298233,
                    1
                ],
                "metallicFactor" : 0,
                "roughnessFactor" : 0.5
            }
        },
        {
            "doubleSided" : true,
            "name" : "collar",
            "pbrMetallicRoughness" : {
                "baseColorFactor" : [
                    0.057604625821113586,
                    0.19341570138931274,
                    0.8000000715255737,
                    1
                ],
                "metallicFactor" : 0,
                "roughnessFactor" : 0.5
            }
        },
        {
            "doubleSided" : true,
            "name" : "back-shirt",
            "pbrMetallicRoughness" : {
                "baseColorFactor" : [
                    0.8000000715255737,
                    0.07172013819217682,
                    0.4771701693534851,
                    1
                ],
                "metallicFactor" : 0,
                "roughnessFactor" : 0.5
            }
        }
    ],
    "meshes" : [
        {
            "name" : "Plane_Plane.008",
            "primitives" : [
                {
                    "attributes" : {
                        "POSITION" : 0,
                        "TEXCOORD_0" : 1,
                        "NORMAL" : 2
                    },
                    "indices" : 3,
                    "material" : 0
                },
                {
                    "attributes" : {
                        "POSITION" : 4,
                        "TEXCOORD_0" : 5,
                        "NORMAL" : 6
                    },
                    "indices" : 7,
                    "material" : 1
                },
                {
                    "attributes" : {
                        "POSITION" : 8,
                        "TEXCOORD_0" : 9,
                        "NORMAL" : 10
                    },
                    "indices" : 11,
                    "material" : 2
                },
                {
                    "attributes" : {
                        "POSITION" : 12,
                        "TEXCOORD_0" : 13,
                        "NORMAL" : 14
                    },
                    "indices" : 15,
                    "material" : 3
                },
                {
                    "attributes" : {
                        "POSITION" : 16,
                        "TEXCOORD_0" : 17,
                        "NORMAL" : 18
                    },
                    "indices" : 19,
                    "material" : 4
                }
            ]
        },
        {
            "name" : "Cube.001",
            "primitives" : [
                {
                    "attributes" : {
                        "POSITION" : 20,
                        "TEXCOORD_0" : 21,
                        "NORMAL" : 22
                    },
                    "indices" : 23
                }
            ]
        }
    ],
    "textures" : [
        {
            "sampler" : 0,
            "source" : 0
        }
    ],
    "images" : [
        {
            "bufferView" : 4,
            "mimeType" : "image/png",
            "name" : "Image"
        }
    ],
    "accessors" : [
        {
            "bufferView" : 0,
            "componentType" : 5126,
            "count" : 1640,
            "max" : [
                -0.009709563106298447,
                0.5104360580444336,
                0.5206871628761292
            ],
            "min" : [
                -0.638113260269165,
                -0.5756546258926392,
                -0.4468187391757965
            ],
            "type" : "VEC3"
        },
        {
            "bufferView" : 1,
            "componentType" : 5126,
            "count" : 1640,
            "type" : "VEC2"
        },
        {
            "bufferView" : 2,
            "componentType" : 5126,
            "count" : 1640,
            "type" : "VEC3"
        },
        {
            "bufferView" : 3,
            "componentType" : 5123,
            "count" : 8460,
            "type" : "SCALAR"
        },
        {
            "bufferView" : 5,
            "componentType" : 5126,
            "count" : 726,
            "max" : [
                -0.15408989787101746,
                0.5104360580444336,
                0.5250309109687805
            ],
            "min" : [
                -0.4277897775173187,
                -0.024330466985702515,
                0.10979097336530685
            ],
            "type" : "VEC3"
        },
        {
            "bufferView" : 6,
            "componentType" : 5126,
            "count" : 726,
            "type" : "VEC2"
        },
        {
            "bufferView" : 7,
            "componentType" : 5126,
            "count" : 726,
            "type" : "VEC3"
        },
        {
            "bufferView" : 8,
            "componentType" : 5123,
            "count" : 3882,
            "type" : "SCALAR"
        },
        {
            "bufferView" : 9,
            "componentType" : 5126,
            "count" : 684,
            "max" : [
                -0.36195769906044006,
                0.36220887303352356,
                -0.22352436184883118
            ],
            "min" : [
                -0.6447957754135132,
                -0.06878101080656052,
                -0.4518807828426361
            ],
            "type" : "VEC3"
        },
        {
            "bufferView" : 10,
            "componentType" : 5126,
            "count" : 684,
            "type" : "VEC2"
        },
        {
            "bufferView" : 11,
            "componentType" : 5126,
            "count" : 684,
            "type" : "VEC3"
        },
        {
            "bufferView" : 12,
            "componentType" : 5123,
            "count" : 3648,
            "type" : "SCALAR"
        },
        {
            "bufferView" : 13,
            "componentType" : 5126,
            "count" : 112,
            "max" : [
                -0.23010170459747314,
                0.5268129110336304,
                0.127663254737854
            ],
            "min" : [
                -0.4984110891819,
                0.4348931312561035,
                -0.1474800705909729
            ],
            "type" : "VEC3"
        },
        {
            "bufferView" : 14,
            "componentType" : 5126,
            "count" : 112,
            "type" : "VEC2"
        },
        {
            "bufferView" : 15,
            "componentType" : 5126,
            "count" : 112,
            "type" : "VEC3"
        },
        {
            "bufferView" : 16,
            "componentType" : 5123,
            "count" : 504,
            "type" : "SCALAR"
        },
        {
            "bufferView" : 17,
            "componentType" : 5126,
            "count" : 1548,
            "max" : [
                -0.21401622891426086,
                0.509442150592804,
                0.36952322721481323
            ],
            "min" : [
                -0.6255038380622864,
                -0.5820684432983398,
                -0.3377048373222351
            ],
            "type" : "VEC3"
        },
        {
            "bufferView" : 18,
            "componentType" : 5126,
            "count" : 1548,
            "type" : "VEC2"
        },
        {
            "bufferView" : 19,
            "componentType" : 5126,
            "count" : 1548,
            "type" : "VEC3"
        },
        {
            "bufferView" : 20,
            "componentType" : 5123,
            "count" : 8562,
            "type" : "SCALAR"
        },
        {
            "bufferView" : 21,
            "componentType" : 5126,
            "count" : 40,
            "max" : [
                0.004163995385169983,
                0.0019300312269479036,
                0.004545143805444241
            ],
            "min" : [
                -0.010723795741796494,
                -0.0023452213499695063,
                -0.005880176089704037
            ],
            "type" : "VEC3"
        },
        {
            "bufferView" : 22,
            "componentType" : 5126,
            "count" : 40,
            "type" : "VEC2"
        },
        {
            "bufferView" : 23,
            "componentType" : 5126,
            "count" : 40,
            "type" : "VEC3"
        },
        {
            "bufferView" : 24,
            "componentType" : 5123,
            "count" : 120,
            "type" : "SCALAR"
        }
    ],
    "bufferViews" : [
        {
            "buffer" : 0,
            "byteLength" : 19680,
            "byteOffset" : 0,
            "target" : 34962
        },
        {
            "buffer" : 0,
            "byteLength" : 13120,
            "byteOffset" : 19680,
            "target" : 34962
        },
        {
            "buffer" : 0,
            "byteLength" : 19680,
            "byteOffset" : 32800,
            "target" : 34962
        },
        {
            "buffer" : 0,
            "byteLength" : 16920,
            "byteOffset" : 52480,
            "target" : 34963
        },
        {
            "buffer" : 0,
            "byteLength" : 90,
            "byteOffset" : 69400
        },
        {
            "buffer" : 0,
            "byteLength" : 8712,
            "byteOffset" : 69492,
            "target" : 34962
        },
        {
            "buffer" : 0,
            "byteLength" : 5808,
            "byteOffset" : 78204,
            "target" : 34962
        },
        {
            "buffer" : 0,
            "byteLength" : 8712,
            "byteOffset" : 84012,
            "target" : 34962
        },
        {
            "buffer" : 0,
            "byteLength" : 7764,
            "byteOffset" : 92724,
            "target" : 34963
        },
        {
            "buffer" : 0,
            "byteLength" : 8208,
            "byteOffset" : 100488,
            "target" : 34962
        },
        {
            "buffer" : 0,
            "byteLength" : 5472,
            "byteOffset" : 108696,
            "target" : 34962
        },
        {
            "buffer" : 0,
            "byteLength" : 8208,
            "byteOffset" : 114168,
            "target" : 34962
        },
        {
            "buffer" : 0,
            "byteLength" : 7296,
            "byteOffset" : 122376,
            "target" : 34963
        },
        {
            "buffer" : 0,
            "byteLength" : 1344,
            "byteOffset" : 129672,
            "target" : 34962
        },
        {
            "buffer" : 0,
            "byteLength" : 896,
            "byteOffset" : 131016,
            "target" : 34962
        },
        {
            "buffer" : 0,
            "byteLength" : 1344,
            "byteOffset" : 131912,
            "target" : 34962
        },
        {
            "buffer" : 0,
            "byteLength" : 1008,
            "byteOffset" : 133256,
            "target" : 34963
        },
        {
            "buffer" : 0,
            "byteLength" : 18576,
            "byteOffset" : 134264,
            "target" : 34962
        },
        {
            "buffer" : 0,
            "byteLength" : 12384,
            "byteOffset" : 152840,
            "target" : 34962
        },
        {
            "buffer" : 0,
            "byteLength" : 18576,
            "byteOffset" : 165224,
            "target" : 34962
        },
        {
            "buffer" : 0,
            "byteLength" : 17124,
            "byteOffset" : 183800,
            "target" : 34963
        },
        {
            "buffer" : 0,
            "byteLength" : 480,
            "byteOffset" : 200924,
            "target" : 34962
        },
        {
            "buffer" : 0,
            "byteLength" : 320,
            "byteOffset" : 201404,
            "target" : 34962
        },
        {
            "buffer" : 0,
            "byteLength" : 480,
            "byteOffset" : 201724,
            "target" : 34962
        },
        {
            "buffer" : 0,
            "byteLength" : 240,
            "byteOffset" : 202204,
            "target" : 34963
        }
    ],
    "samplers" : [
        {
            "magFilter" : 9729,
            "minFilter" : 9987
        }
    ],
    "buffers" : [
        {
            "byteLength" : 202444,
            "uri" : "data:application/octet-stream;base64,"
        }
    ]
}
