{
    "asset" : {
        "generator" : "Khronos glTF Blender I/O v3.4.50",
        "version" : "2.0"
    },
    "scene" : 0,
    "scenes" : [
        {
            "name" : "Scene",
            "nodes" : [
                0
            ]
        }
    ],
    "nodes" : [
        {
            "mesh" : 0,
            "name" : "Plane_Plane.008",
            "rotation" : [
                0.05071885511279106,
                -0.81874680519104,
                -0.0035879872739315033,
                0.571898877620697
            ],
            "translation" : [
                -0.10443142056465149,
                -0.04475632309913635,
                0.2958890497684479
            ]
        }
    ],
    "materials" : [
        {
            "doubleSided" : true,
            "name" : "shirt",
            "pbrMetallicRoughness" : {
                "baseColorFactor" : [
                    0.6036205291748047,
                    0.8000000715255737,
                    0.23732729256153107,
                    1
                ],
                "metallicFactor" : 0,
                "metallicRoughnessTexture" : {
                    "index" : 0
                }
            }
        },
        {
            "doubleSided" : true,
            "name" : "sleeves",
            "pbrMetallicRoughness" : {
                "baseColorFactor" : [
                    0.8000000715255737,
                    0.1478065550327301,
                    0.7737460732460022,
                    1
                ],
                "metallicFactor" : 0,
                "roughnessFactor" : 0.5
            }
        },
        {
            "doubleSided" : true,
            "name" : "collar",
            "pbrMetallicRoughness" : {
                "baseColorFactor" : [
                    0.8000000715255737,
                    0.037110764533281326,
                    0.11774703115224838,
                    1
                ],
                "metallicFactor" : 0,
                "roughnessFactor" : 0.5
            }
        }
    ],
    "meshes" : [
        {
            "name" : "Plane_Plane.008",
            "primitives" : [
                {
                    "attributes" : {
                        "POSITION" : 0,
                        "TEXCOORD_0" : 1,
                        "NORMAL" : 2
                    },
                    "indices" : 3,
                    "material" : 0
                },
                {
                    "attributes" : {
                        "POSITION" : 4,
                        "TEXCOORD_0" : 5,
                        "NORMAL" : 6
                    },
                    "indices" : 7,
                    "material" : 1
                },
                {
                    "attributes" : {
                        "POSITION" : 8,
                        "TEXCOORD_0" : 9,
                        "NORMAL" : 10
                    },
                    "indices" : 11,
                    "material" : 2
                }
            ]
        }
    ],
    "textures" : [
        {
            "sampler" : 0,
            "source" : 0
        }
    ],
    "images" : [
        {
            "bufferView" : 4,
            "mimeType" : "image/png",
            "name" : "Image"
        }
    ],
    "accessors" : [
        {
            "bufferView" : 0,
            "componentType" : 5126,
            "count" : 852,
            "max" : [
                -0.006564080715179443,
                0.5133950710296631,
                0.5211765766143799
            ],
            "min" : [
                -0.6298314332962036,
                -0.582264244556427,
                -0.44767582416534424
            ],
            "type" : "VEC3"
        },
        {
            "bufferView" : 1,
            "componentType" : 5126,
            "count" : 852,
            "type" : "VEC2"
        },
        {
            "bufferView" : 2,
            "componentType" : 5126,
            "count" : 852,
            "type" : "VEC3"
        },
        {
            "bufferView" : 3,
            "componentType" : 5123,
            "count" : 4398,
            "type" : "SCALAR"
        },
        {
            "bufferView" : 5,
            "componentType" : 5126,
            "count" : 374,
            "max" : [
                -0.14991998672485352,
                0.42594316601753235,
                0.5255270004272461
            ],
            "min" : [
                -0.6491312980651855,
                -0.06972923874855042,
                -0.4530191421508789
            ],
            "type" : "VEC3"
        },
        {
            "bufferView" : 6,
            "componentType" : 5126,
            "count" : 374,
            "type" : "VEC2"
        },
        {
            "bufferView" : 7,
            "componentType" : 5126,
            "count" : 374,
            "type" : "VEC3"
        },
        {
            "bufferView" : 8,
            "componentType" : 5123,
            "count" : 1782,
            "type" : "SCALAR"
        },
        {
            "bufferView" : 9,
            "componentType" : 5126,
            "count" : 28,
            "max" : [
                -0.22624807059764862,
                0.5293480753898621,
                0.13253569602966309
            ],
            "min" : [
                -0.5013275146484375,
                0.4311574101448059,
                -0.15187986195087433
            ],
            "type" : "VEC3"
        },
        {
            "bufferView" : 10,
            "componentType" : 5126,
            "count" : 28,
            "type" : "VEC2"
        },
        {
            "bufferView" : 11,
            "componentType" : 5126,
            "count" : 28,
            "type" : "VEC3"
        },
        {
            "bufferView" : 12,
            "componentType" : 5123,
            "count" : 84,
            "type" : "SCALAR"
        }
    ],
    "bufferViews" : [
        {
            "buffer" : 0,
            "byteLength" : 10224,
            "byteOffset" : 0,
            "target" : 34962
        },
        {
            "buffer" : 0,
            "byteLength" : 6816,
            "byteOffset" : 10224,
            "target" : 34962
        },
        {
            "buffer" : 0,
            "byteLength" : 10224,
            "byteOffset" : 17040,
            "target" : 34962
        },
        {
            "buffer" : 0,
            "byteLength" : 8796,
            "byteOffset" : 27264,
            "target" : 34963
        },
        {
            "buffer" : 0,
            "byteLength" : 90,
            "byteOffset" : 36060
        },
        {
            "buffer" : 0,
            "byteLength" : 4488,
            "byteOffset" : 36152,
            "target" : 34962
        },
        {
            "buffer" : 0,
            "byteLength" : 2992,
            "byteOffset" : 40640,
            "target" : 34962
        },
        {
            "buffer" : 0,
            "byteLength" : 4488,
            "byteOffset" : 43632,
            "target" : 34962
        },
        {
            "buffer" : 0,
            "byteLength" : 3564,
            "byteOffset" : 48120,
            "target" : 34963
        },
        {
            "buffer" : 0,
            "byteLength" : 336,
            "byteOffset" : 51684,
            "target" : 34962
        },
        {
            "buffer" : 0,
            "byteLength" : 224,
            "byteOffset" : 52020,
            "target" : 34962
        },
        {
            "buffer" : 0,
            "byteLength" : 336,
            "byteOffset" : 52244,
            "target" : 34962
        },
        {
            "buffer" : 0,
            "byteLength" : 168,
            "byteOffset" : 52580,
            "target" : 34963
        }
    ],
    "samplers" : [
        {
            "magFilter" : 9729,
            "minFilter" : 9987
        }
    ],
    "buffers" : [
        {
            "byteLength" : 52748,
            "uri" : "data:application/octet-stream;base64,"
        }
    ]
}
