{
    "asset" : {
        "generator" : "Khronos glTF Blender I/O v3.4.50",
        "version" : "2.0"
    },
    "scene" : 0,
    "scenes" : [
        {
            "name" : "Scene",
            "nodes" : [
                2,
                3,
                4
            ]
        }
    ],
    "nodes" : [
        {
            "name" : "left-sleev",
            "translation" : [
                -0.498848557472229,
                0.038228463381528854,
                -0.44483712315559387
            ]
        },
        {
            "name" : "right-sleev",
            "translation" : [
                -0.22579927742481232,
                0.11574652791023254,
                0.4931676685810089
            ]
        },
        {
            "children" : [
                0,
                1
            ],
            "mesh" : 0,
            "name" : "T-shirt",
            "rotation" : [
                0.05071885883808136,
                -0.8187469244003296,
                -0.003587991464883089,
                0.5718988180160522
            ],
            "translation" : [
                -0.10443142056465149,
                -0.04475632309913635,
                0.2958890497684479
            ]
        },
        {
            "mesh" : 1,
            "name" : "right-stitch",
            "rotation" : [
                0.0038292391691356897,
                -0.005127281881868839,
                -0.007161505054682493,
                0.9999538660049438
            ],
            "translation" : [
                -0.49865689873695374,
                0.06435927003622055,
                -0.0786469578742981
            ]
        },
        {
            "mesh" : 2,
            "name" : "left-stitch",
            "rotation" : [
                -0.0005424305563792586,
                -0.002051759511232376,
                -0.0003098204324487597,
                0.9999976754188538
            ],
            "translation" : [
                0.4792610704898834,
                0.05994439125061035,
                -0.01480787992477417
            ]
        }
    ],
    "materials" : [
        {
            "doubleSided" : true,
            "name" : "shirt",
            "pbrMetallicRoughness" : {
                "baseColorFactor" : [
                    0.6069375276565552,
                    0.7920554876327515,
                    0.8000000715255737,
                    1
                ],
                "metallicFactor" : 0,
                "metallicRoughnessTexture" : {
                    "index" : 0
                }
            }
        },
        {
            "doubleSided" : true,
            "name" : "right-sleeve",
            "pbrMetallicRoughness" : {
                "baseColorFactor" : [
                    0.014872699044644833,
                    0.6284609436988831,
                    0.8000000715255737,
                    1
                ],
                "metallicFactor" : 0,
                "roughnessFactor" : 0.5
            }
        },
        {
            "doubleSided" : true,
            "name" : "left-sleeve",
            "pbrMetallicRoughness" : {
                "baseColorFactor" : [
                    0.8000000715255737,
                    0.04107788950204849,
                    0.2134261280298233,
                    1
                ],
                "metallicFactor" : 0,
                "roughnessFactor" : 0.5
            }
        },
        {
            "doubleSided" : true,
            "name" : "collar",
            "pbrMetallicRoughness" : {
                "baseColorFactor" : [
                    0.057604625821113586,
                    0.19341570138931274,
                    0.8000000715255737,
                    1
                ],
                "metallicFactor" : 0,
                "roughnessFactor" : 0.5
            }
        },
        {
            "doubleSided" : true,
            "name" : "back-shirt",
            "pbrMetallicRoughness" : {
                "baseColorFactor" : [
                    0.8000000715255737,
                    0.07172013819217682,
                    0.4771701693534851,
                    1
                ],
                "metallicFactor" : 0,
                "roughnessFactor" : 0.5
            }
        },
        {
            "doubleSided" : true,
            "name" : "right-stitch-colour",
            "pbrMetallicRoughness" : {
                "baseColorFactor" : [
                    0,
                    0.057473599910736084,
                    0.8000000715255737,
                    1
                ],
                "metallicFactor" : 0,
                "roughnessFactor" : 0.5
            }
        },
        {
            "doubleSided" : true,
            "name" : "left-sleev-color",
            "pbrMetallicRoughness" : {
                "baseColorFactor" : [
                    0.236084446310997,
                    0.13756482303142548,
                    0.8000000715255737,
                    1
                ],
                "metallicFactor" : 0,
                "roughnessFactor" : 0.5
            }
        }
    ],
    "meshes" : [
        {
            "name" : "T-shirt",
            "primitives" : [
                {
                    "attributes" : {
                        "POSITION" : 0,
                        "TEXCOORD_0" : 1,
                        "NORMAL" : 2
                    },
                    "indices" : 3,
                    "material" : 0
                },
                {
                    "attributes" : {
                        "POSITION" : 4,
                        "TEXCOORD_0" : 5,
                        "NORMAL" : 6
                    },
                    "indices" : 7,
                    "material" : 1
                },
                {
                    "attributes" : {
                        "POSITION" : 8,
                        "TEXCOORD_0" : 9,
                        "NORMAL" : 10
                    },
                    "indices" : 11,
                    "material" : 2
                },
                {
                    "attributes" : {
                        "POSITION" : 12,
                        "TEXCOORD_0" : 13,
                        "NORMAL" : 14
                    },
                    "indices" : 15,
                    "material" : 3
                },
                {
                    "attributes" : {
                        "POSITION" : 16,
                        "TEXCOORD_0" : 17,
                        "NORMAL" : 18
                    },
                    "indices" : 19,
                    "material" : 4
                }
            ]
        },
        {
            "name" : "right-stitch",
            "primitives" : [
                {
                    "attributes" : {
                        "POSITION" : 20,
                        "TEXCOORD_0" : 21,
                        "NORMAL" : 22
                    },
                    "indices" : 23,
                    "material" : 5
                }
            ]
        },
        {
            "name" : "left-stitch",
            "primitives" : [
                {
                    "attributes" : {
                        "POSITION" : 24,
                        "TEXCOORD_0" : 25,
                        "NORMAL" : 26
                    },
                    "indices" : 27,
                    "material" : 6
                }
            ]
        }
    ],
    "textures" : [
        {
            "sampler" : 0,
            "source" : 0
        }
    ],
    "images" : [
        {
            "bufferView" : 4,
            "mimeType" : "image/png",
            "name" : "Image"
        }
    ],
    "accessors" : [
        {
            "bufferView" : 0,
            "componentType" : 5126,
            "count" : 1412,
            "max" : [
                -0.009709563106298447,
                0.5104360580444336,
                0.35665637254714966
            ],
            "min" : [
                -0.5841767191886902,
                -0.5756546258926392,
                -0.37236830592155457
            ],
            "type" : "VEC3"
        },
        {
            "bufferView" : 1,
            "componentType" : 5126,
            "count" : 1412,
            "type" : "VEC2"
        },
        {
            "bufferView" : 2,
            "componentType" : 5126,
            "count" : 1412,
            "type" : "VEC3"
        },
        {
            "bufferView" : 3,
            "componentType" : 5123,
            "count" : 7548,
            "type" : "SCALAR"
        },
        {
            "bufferView" : 5,
            "componentType" : 5126,
            "count" : 840,
            "max" : [
                -0.15408989787101746,
                0.5104360580444336,
                0.5250309109687805
            ],
            "min" : [
                -0.4277897775173187,
                -0.024330466985702515,
                0.10979097336530685
            ],
            "type" : "VEC3"
        },
        {
            "bufferView" : 6,
            "componentType" : 5126,
            "count" : 840,
            "type" : "VEC2"
        },
        {
            "bufferView" : 7,
            "componentType" : 5126,
            "count" : 840,
            "type" : "VEC3"
        },
        {
            "bufferView" : 8,
            "componentType" : 5123,
            "count" : 4338,
            "type" : "SCALAR"
        },
        {
            "bufferView" : 9,
            "componentType" : 5126,
            "count" : 798,
            "max" : [
                -0.36195769906044006,
                0.36220887303352356,
                -0.22352436184883118
            ],
            "min" : [
                -0.6447957754135132,
                -0.06878101080656052,
                -0.4518807828426361
            ],
            "type" : "VEC3"
        },
        {
            "bufferView" : 10,
            "componentType" : 5126,
            "count" : 798,
            "type" : "VEC2"
        },
        {
            "bufferView" : 11,
            "componentType" : 5126,
            "count" : 798,
            "type" : "VEC3"
        },
        {
            "bufferView" : 12,
            "componentType" : 5123,
            "count" : 4104,
            "type" : "SCALAR"
        },
        {
            "bufferView" : 13,
            "componentType" : 5126,
            "count" : 112,
            "max" : [
                -0.23010170459747314,
                0.5268129110336304,
                0.127663254737854
            ],
            "min" : [
                -0.4984110891819,
                0.4348931312561035,
                -0.1474800705909729
            ],
            "type" : "VEC3"
        },
        {
            "bufferView" : 14,
            "componentType" : 5126,
            "count" : 112,
            "type" : "VEC2"
        },
        {
            "bufferView" : 15,
            "componentType" : 5126,
            "count" : 112,
            "type" : "VEC3"
        },
        {
            "bufferView" : 16,
            "componentType" : 5123,
            "count" : 504,
            "type" : "SCALAR"
        },
        {
            "bufferView" : 17,
            "componentType" : 5126,
            "count" : 1548,
            "max" : [
                -0.21401622891426086,
                0.509442150592804,
                0.36952322721481323
            ],
            "min" : [
                -0.6255038380622864,
                -0.5820684432983398,
                -0.3377048373222351
            ],
            "type" : "VEC3"
        },
        {
            "bufferView" : 18,
            "componentType" : 5126,
            "count" : 1548,
            "type" : "VEC2"
        },
        {
            "bufferView" : 19,
            "componentType" : 5126,
            "count" : 1548,
            "type" : "VEC3"
        },
        {
            "bufferView" : 20,
            "componentType" : 5123,
            "count" : 8562,
            "type" : "SCALAR"
        },
        {
            "bufferView" : 21,
            "componentType" : 5126,
            "count" : 9653,
            "max" : [
                0.19884797930717468,
                0.00703715905547142,
                0.08506117016077042
            ],
            "min" : [
                -0.008641631342470646,
                -0.11368007957935333,
                -0.1369880735874176
            ],
            "type" : "VEC3"
        },
        {
            "bufferView" : 22,
            "componentType" : 5126,
            "count" : 9653,
            "type" : "VEC2"
        },
        {
            "bufferView" : 23,
            "componentType" : 5126,
            "count" : 9653,
            "type" : "VEC3"
        },
        {
            "bufferView" : 24,
            "componentType" : 5123,
            "count" : 47040,
            "type" : "SCALAR"
        },
        {
            "bufferView" : 25,
            "componentType" : 5126,
            "count" : 7683,
            "max" : [
                0.024009311571717262,
                0.016619745641946793,
                0.04988311231136322
            ],
            "min" : [
                -0.1850137859582901,
                -0.10843363404273987,
                -0.17129337787628174
            ],
            "type" : "VEC3"
        },
        {
            "bufferView" : 26,
            "componentType" : 5126,
            "count" : 7683,
            "type" : "VEC2"
        },
        {
            "bufferView" : 27,
            "componentType" : 5126,
            "count" : 7683,
            "type" : "VEC3"
        },
        {
            "bufferView" : 28,
            "componentType" : 5123,
            "count" : 37440,
            "type" : "SCALAR"
        }
    ],
    "bufferViews" : [
        {
            "buffer" : 0,
            "byteLength" : 16944,
            "byteOffset" : 0,
            "target" : 34962
        },
        {
            "buffer" : 0,
            "byteLength" : 11296,
            "byteOffset" : 16944,
            "target" : 34962
        },
        {
            "buffer" : 0,
            "byteLength" : 16944,
            "byteOffset" : 28240,
            "target" : 34962
        },
        {
            "buffer" : 0,
            "byteLength" : 15096,
            "byteOffset" : 45184,
            "target" : 34963
        },
        {
            "buffer" : 0,
            "byteLength" : 90,
            "byteOffset" : 60280
        },
        {
            "buffer" : 0,
            "byteLength" : 10080,
            "byteOffset" : 60372,
            "target" : 34962
        },
        {
            "buffer" : 0,
            "byteLength" : 6720,
            "byteOffset" : 70452,
            "target" : 34962
        },
        {
            "buffer" : 0,
            "byteLength" : 10080,
            "byteOffset" : 77172,
            "target" : 34962
        },
        {
            "buffer" : 0,
            "byteLength" : 8676,
            "byteOffset" : 87252,
            "target" : 34963
        },
        {
            "buffer" : 0,
            "byteLength" : 9576,
            "byteOffset" : 95928,
            "target" : 34962
        },
        {
            "buffer" : 0,
            "byteLength" : 6384,
            "byteOffset" : 105504,
            "target" : 34962
        },
        {
            "buffer" : 0,
            "byteLength" : 9576,
            "byteOffset" : 111888,
            "target" : 34962
        },
        {
            "buffer" : 0,
            "byteLength" : 8208,
            "byteOffset" : 121464,
            "target" : 34963
        },
        {
            "buffer" : 0,
            "byteLength" : 1344,
            "byteOffset" : 129672,
            "target" : 34962
        },
        {
            "buffer" : 0,
            "byteLength" : 896,
            "byteOffset" : 131016,
            "target" : 34962
        },
        {
            "buffer" : 0,
            "byteLength" : 1344,
            "byteOffset" : 131912,
            "target" : 34962
        },
        {
            "buffer" : 0,
            "byteLength" : 1008,
            "byteOffset" : 133256,
            "target" : 34963
        },
        {
            "buffer" : 0,
            "byteLength" : 18576,
            "byteOffset" : 134264,
            "target" : 34962
        },
        {
            "buffer" : 0,
            "byteLength" : 12384,
            "byteOffset" : 152840,
            "target" : 34962
        },
        {
            "buffer" : 0,
            "byteLength" : 18576,
            "byteOffset" : 165224,
            "target" : 34962
        },
        {
            "buffer" : 0,
            "byteLength" : 17124,
            "byteOffset" : 183800,
            "target" : 34963
        },
        {
            "buffer" : 0,
            "byteLength" : 115836,
            "byteOffset" : 200924,
            "target" : 34962
        },
        {
            "buffer" : 0,
            "byteLength" : 77224,
            "byteOffset" : 316760,
            "target" : 34962
        },
        {
            "buffer" : 0,
            "byteLength" : 115836,
            "byteOffset" : 393984,
            "target" : 34962
        },
        {
            "buffer" : 0,
            "byteLength" : 94080,
            "byteOffset" : 509820,
            "target" : 34963
        },
        {
            "buffer" : 0,
            "byteLength" : 92196,
            "byteOffset" : 603900,
            "target" : 34962
        },
        {
            "buffer" : 0,
            "byteLength" : 61464,
            "byteOffset" : 696096,
            "target" : 34962
        },
        {
            "buffer" : 0,
            "byteLength" : 92196,
            "byteOffset" : 757560,
            "target" : 34962
        },
        {
            "buffer" : 0,
            "byteLength" : 74880,
            "byteOffset" : 849756,
            "target" : 34963
        }
    ],
    "samplers" : [
        {
            "magFilter" : 9729,
            "minFilter" : 9987
        }
    ],
    "buffers" : [
        {
            "byteLength" : 924636,
            "uri" : "data:application/octet-stream;base64,"
        }
    ]
}
